<svg width="157" height="157" viewBox="0 0 157 157" fill="none" xmlns="http://www.w3.org/2000/svg">
<path fill-rule="evenodd" clip-rule="evenodd" d="M93.9111 13.1351C92.4518 12.9259 90.9859 13.3574 89.8198 14.2857C88.621 15.227 87.8718 16.5868 87.709 18.1099C87.3637 21.1889 89.5852 23.9738 92.6602 24.3202C113.866 26.6867 130.349 43.2061 132.733 64.4781C133.052 67.3283 135.443 69.4791 138.297 69.4791C138.512 69.4791 138.72 69.466 138.935 69.4398C140.427 69.2764 141.756 68.5377 142.694 67.361C143.626 66.1843 144.049 64.72 143.88 63.223C140.909 36.682 120.368 16.0834 93.9111 13.1351ZM94.3183 35.9133C91.2042 35.338 88.3441 37.3253 87.7513 40.3651C87.1584 43.4049 89.152 46.3727 92.1814 46.9676C101.302 48.7457 108.345 55.8059 110.13 64.9579V64.9645C110.638 67.599 112.957 69.5144 115.628 69.5144C115.987 69.5144 116.345 69.4817 116.71 69.4163C119.739 68.8083 121.733 65.847 121.14 62.8007C118.475 49.1314 107.954 38.5739 94.3183 35.9133ZM104.667 98.7173C107.62 97.0143 110.956 95.091 115.164 95.986C118.975 96.7901 131.966 107.335 135.523 110.989C137.855 113.381 139.152 115.852 139.354 118.324C139.705 128.018 126.532 139.086 124.135 140.465C120.949 142.76 117.242 143.917 113.079 143.917C108.825 143.917 104.082 142.707 98.9093 140.295C70.8433 128.58 27.969 86.5529 16.6332 58.7045C11.9294 48.3365 11.8969 39.7859 16.555 33.3598C18.4117 30.3462 28.9984 17.7491 38.4775 18.1478C40.9987 18.3636 43.4483 19.6579 45.8523 22.0113C49.4876 25.5741 59.768 38.6027 60.5628 42.4269C61.4423 46.6761 59.5139 50.0558 57.8005 53.0237C57.4351 53.6617 56.9427 54.4188 56.4032 55.2483C54.3559 58.3963 51.6309 62.5864 52.5952 65.2613C59.5074 82.2318 75.4753 97.0385 92.4531 103.994C95.0786 104.948 99.2663 102.204 102.404 100.147C103.222 99.6116 103.968 99.1226 104.597 98.7578L104.667 98.7173Z" fill="white"/>
</svg>
