<svg width="67" height="67" viewBox="0 0 67 67" fill="none" xmlns="http://www.w3.org/2000/svg">
<path fill-rule="evenodd" clip-rule="evenodd" d="M19.8629 0.846711C23.366 0.687974 24.484 0.649658 33.4034 0.649658C42.3228 0.649658 43.4408 0.687974 46.9439 0.846711C52.2835 1.09029 56.9703 2.3985 60.7335 6.16166C64.498 9.92618 65.8049 14.6144 66.0484 19.9512C66.2072 23.4544 66.2455 24.5724 66.2455 33.4918C66.2455 42.4111 66.2072 43.5291 66.0484 47.0323C65.8049 52.3719 64.4967 57.0587 60.7335 60.8219C56.969 64.5864 52.2794 65.8932 46.9439 66.1368C43.4408 66.2956 42.3228 66.3339 33.4034 66.3339C24.484 66.3339 23.366 66.2956 19.8629 66.1368C14.5233 65.8932 9.83644 64.585 6.07328 60.8219C2.30875 57.0573 1.00191 52.3691 0.758332 47.0323C0.599595 43.5291 0.561279 42.4111 0.561279 33.4918C0.561279 24.5724 0.599595 23.4544 0.758332 19.9512C1.00191 14.6117 2.31012 9.92482 6.07328 6.16166C9.83781 2.39713 14.526 1.09029 19.8629 0.846711ZM46.6739 6.75799C43.2104 6.59925 42.1718 6.56641 33.4029 6.56641C24.6341 6.56641 23.5954 6.60062 20.132 6.75799C16.3948 6.92904 12.9259 7.67756 10.2574 10.346C7.58902 13.0144 6.8405 16.4834 6.66944 20.2205C6.51071 23.684 6.47786 24.7226 6.47786 33.4915C6.47786 42.2603 6.51208 43.2989 6.66944 46.7624C6.8405 50.4996 7.58902 53.9685 10.2574 56.6369C12.9259 59.3053 16.3948 60.0539 20.132 60.2249C23.5941 60.3837 24.6327 60.4165 33.4029 60.4165C42.1731 60.4165 43.2118 60.3823 46.6739 60.2249C50.411 60.0539 53.88 59.3053 56.5484 56.6369C59.2168 53.9685 59.9653 50.4996 60.1364 46.7624C60.2951 43.2989 60.328 42.2603 60.328 33.4915C60.328 24.7226 60.2938 23.684 60.1364 20.2205C59.9653 16.4834 59.2168 13.0144 56.5484 10.346C53.88 7.67756 50.411 6.92904 46.6739 6.75799Z" fill="white"/>
<path fill-rule="evenodd" clip-rule="evenodd" d="M18.4753 34.9836C18.4753 25.9149 25.8264 18.5625 34.8964 18.5625C43.9663 18.5625 51.3174 25.9136 51.3174 34.9836C51.3174 44.0535 43.9663 51.4046 34.8964 51.4046C25.8264 51.4046 18.4753 44.0522 18.4753 34.9836ZM24.237 34.9825C24.237 40.8692 29.0098 45.642 34.8965 45.642C40.7833 45.642 45.5561 40.8692 45.5561 34.9825C45.5561 29.0957 40.7833 24.3229 34.8965 24.3229C29.0098 24.3229 24.237 29.0957 24.237 34.9825Z" fill="white"/>
<circle cx="49.8242" cy="17.0708" r="4.47847" fill="white"/>
</svg>
