<svg width="70" height="70" viewBox="0 0 70 70" fill="none" xmlns="http://www.w3.org/2000/svg">
<path d="M69.6314 34.8758C69.6285 16.3211 55.1896 1.01622 36.7744 0.0482466C18.3593 -0.919732 2.41406 12.788 0.48977 31.2414C-1.43452 49.6948 11.3357 66.4342 29.5495 69.3333V44.9584H20.7488V34.8758H29.5495V27.1911C29.5495 18.4492 34.7255 13.6205 42.6422 13.6205C45.2421 13.6567 47.8359 13.8841 50.4029 14.3006V22.8856H46.0308C44.5215 22.6839 43.0031 23.1838 41.9042 24.2441C40.8054 25.3044 40.2454 26.81 40.3824 28.3357V34.8758H49.9978L48.4595 44.9584H40.3824V69.3333C57.2292 66.6518 69.6341 52.0378 69.6314 34.8758Z" fill="white"/>
</svg>
