<svg width="72" height="69" viewBox="0 0 72 69" fill="none" xmlns="http://www.w3.org/2000/svg">
<path d="M36 0C16.155 0 0 13.1943 0 29.4097C0 43.9331 12.81 56.1014 30.105 58.4144C31.278 58.6635 32.874 59.1945 33.279 60.1965C33.639 61.1055 33.516 62.5095 33.393 63.4576L32.901 66.5356C32.766 67.4447 32.181 70.1147 36.048 68.4827C39.921 66.8567 56.796 56.1704 64.356 47.4252C69.528 41.725 72 35.8839 72 29.4097C72 13.1943 55.845 0 36 0ZM21.909 39.052H14.751C13.716 39.052 12.861 38.1909 12.861 37.1529V22.7496C12.861 21.7085 13.716 20.8475 14.751 20.8475C15.795 20.8475 16.641 21.7085 16.641 22.7496V35.2509H21.909C22.953 35.2509 23.796 36.1059 23.796 37.1529C23.796 38.1909 22.95 39.052 21.909 39.052V39.052ZM29.307 37.1529C29.307 38.1909 28.461 39.052 27.414 39.052C26.379 39.052 25.533 38.1909 25.533 37.1529V22.7496C25.533 21.7085 26.379 20.8475 27.423 20.8475C28.461 20.8475 29.307 21.7085 29.307 22.7496V37.1529ZM46.53 37.1529C46.53 37.9689 46.008 38.692 45.234 38.953C45.042 39.016 44.835 39.046 44.637 39.046C44.004 39.046 43.464 38.773 43.107 38.2899L35.778 28.2757V37.1499C35.778 38.1879 34.941 39.049 33.885 39.049C32.847 39.049 32.007 38.1879 32.007 37.1499V22.7496C32.007 21.9335 32.526 21.2105 33.297 20.9525C33.477 20.8835 33.705 20.8535 33.879 20.8535C34.464 20.8535 35.004 21.1685 35.364 21.6215L42.75 31.6748V22.7496C42.75 21.7085 43.596 20.8475 44.64 20.8475C45.675 20.8475 46.53 21.7085 46.53 22.7496V37.1529ZM58.095 28.0477C59.142 28.0477 59.985 28.9087 59.985 29.9527C59.985 30.9938 59.142 31.8548 58.095 31.8548H52.83V35.2509H58.095C59.142 35.2509 59.985 36.1059 59.985 37.1529C59.985 38.1909 59.142 39.052 58.095 39.052H50.937C49.902 39.052 49.056 38.1909 49.056 37.1529V22.7496C49.056 21.7085 49.902 20.8475 50.946 20.8475H58.104C59.142 20.8475 59.985 21.7085 59.985 22.7496C59.985 23.8026 59.142 24.6516 58.095 24.6516H52.83V28.0477H58.095Z" fill="white"/>
</svg>
