<svg width="68" height="68" viewBox="0 0 68 68" fill="none" xmlns="http://www.w3.org/2000/svg">
<path d="M59.5 28.3334C59.5 48.1667 34 65.1667 34 65.1667C34 65.1667 8.5 48.1667 8.5 28.3334C8.5 21.5704 11.1866 15.0843 15.9688 10.3022C20.751 5.51997 27.237 2.83337 34 2.83337C40.763 2.83337 47.249 5.51997 52.0312 10.3022C56.8134 15.0843 59.5 21.5704 59.5 28.3334Z" stroke="black" stroke-width="2" stroke-linecap="round" stroke-linejoin="round"/>
<path d="M34 36.8334C38.6944 36.8334 42.5 33.0278 42.5 28.3334C42.5 23.639 38.6944 19.8334 34 19.8334C29.3056 19.8334 25.5 23.639 25.5 28.3334C25.5 33.0278 29.3056 36.8334 34 36.8334Z" stroke="black" stroke-width="2" stroke-linecap="round" stroke-linejoin="round"/>
</svg>
