<svg width="127" height="159" viewBox="0 0 127 159" fill="none" xmlns="http://www.w3.org/2000/svg">
<path d="M81.3564 41.5564L66.5355 26.7122C65.7792 25.9547 65.1792 25.0553 64.7699 24.0656C64.3606 23.0758 64.1499 22.015 64.1499 20.9437C64.1499 18.7801 65.008 16.7051 66.5355 15.1752C68.063 13.6453 70.1348 12.7858 72.295 12.7858C74.4552 12.7858 76.5269 13.6453 78.0544 15.1752L92.8753 30.0194C94.4028 31.5493 95.261 33.6243 95.261 35.7879C95.261 37.9515 94.4028 40.0265 92.8753 41.5564C91.3478 43.0863 89.2761 43.9458 87.1159 43.9458C84.9557 43.9458 82.8839 43.0863 81.3564 41.5564Z" fill="white"/>
<path d="M58.306 64.6558L43.4851 49.8115C42.7376 49.0147 41.8379 48.3762 40.8394 47.9342C39.8408 47.4921 38.7639 47.2554 37.6723 47.2381C36.5807 47.2208 35.4968 47.4232 34.4848 47.8333C33.4727 48.2434 32.5533 48.853 31.7809 49.6257C31.0085 50.3985 30.3989 51.3187 29.9883 52.3318C29.5777 53.345 29.3744 54.4304 29.3905 55.5237C29.4066 56.617 29.6418 57.696 30.0821 58.6966C30.5223 59.6971 31.1587 60.599 31.9535 61.3486L46.7744 76.1928C48.3173 77.6479 50.3652 78.4442 52.4842 78.4129C54.6032 78.3816 56.6268 77.5252 58.1261 76.0251C59.6254 74.5251 60.4827 72.4992 60.5163 70.377C60.5499 68.2547 59.7572 66.2027 58.306 64.6558V64.6558Z" fill="white"/>
<path d="M78.8843 45.6947L62.4146 29.199L45.9448 45.6947L62.4146 62.1904L78.8843 45.6947Z" fill="white"/>
<path d="M110.706 102.307L71.4756 63.002L79.7052 54.7594L118.948 94.0515C120.006 95.1534 120.59 96.6269 120.575 98.1555C120.561 99.6841 119.948 101.146 118.868 102.227C117.789 103.308 116.33 103.922 114.803 103.937C113.277 103.952 111.806 103.366 110.706 102.307V102.307Z" fill="white"/>
<path d="M51.27 99.9538V93.1867C51.2717 92.8098 51.199 92.4363 51.0561 92.0876C50.9133 91.7389 50.7031 91.4219 50.4376 91.1548C50.1721 90.8877 49.8565 90.6757 49.509 90.5311C49.1614 90.3865 48.7888 90.312 48.4125 90.312H18.0341C17.284 90.3254 16.5696 90.635 16.0463 91.1734C15.5231 91.7118 15.2333 92.4354 15.2401 93.1867V99.9538H12.1032C11.3466 99.9538 10.5975 100.103 9.89866 100.394C9.19983 100.684 8.56505 101.11 8.03066 101.646C7.49627 102.182 7.07276 102.819 6.78439 103.52C6.49602 104.22 6.34844 104.971 6.35011 105.729V114.48H60.0838V105.729C60.0855 104.971 59.9379 104.22 59.6495 103.52C59.3612 102.819 58.9376 102.182 58.4033 101.646C57.8689 101.11 57.2341 100.684 56.5353 100.394C55.8364 100.103 55.0873 99.9538 54.3307 99.9538H51.27Z" fill="white"/>
</svg>
