<svg width="148" height="148" viewBox="0 0 148 148" fill="none" xmlns="http://www.w3.org/2000/svg">
<path fill-rule="evenodd" clip-rule="evenodd" d="M55.042 101.072H88.2565C90.7598 101.072 92.8357 98.975 92.8357 96.4467C92.8357 93.9184 90.7598 91.8834 88.2565 91.8834H55.042C52.5387 91.8834 50.4628 93.9184 50.4628 96.4467C50.4628 98.975 52.5387 101.072 55.042 101.072ZM75.679 61.05H55.042C52.5387 61.05 50.4628 63.1467 50.4628 65.675C50.4628 68.2034 52.5387 70.2384 55.042 70.2384H75.679C78.1823 70.2384 80.2582 68.2034 80.2582 65.675C80.2582 63.1467 78.1823 61.05 75.679 61.05ZM119.251 55.658C120.687 55.6414 122.249 55.6234 123.669 55.6234C125.195 55.6234 126.417 56.8567 126.417 58.3984V107.978C126.417 123.272 114.144 135.667 99.0024 135.667H50.4017C34.5271 135.667 21.5833 122.655 21.5833 106.622V40.145C21.5833 24.8517 33.9166 12.3334 49.1196 12.3334H81.7235C83.311 12.3334 84.5321 13.6284 84.5321 15.17V35.0267C84.5321 46.3117 93.7516 55.5617 104.925 55.6234C107.535 55.6234 109.836 55.6429 111.849 55.66C113.416 55.6732 114.808 55.685 116.037 55.685C116.906 55.685 118.033 55.672 119.251 55.658ZM120.935 46.657C115.916 46.6755 110 46.657 105.744 46.6139C98.9914 46.6139 93.4292 40.996 93.4292 34.1757V17.9204C93.4292 15.2625 96.6224 13.9429 98.448 15.8607C101.753 19.3316 106.295 24.103 110.816 28.8523C115.324 33.5872 119.81 38.3002 123.029 41.6805C124.812 43.549 123.505 46.6509 120.935 46.657Z" fill="white"/>
</svg>
