<svg width="204" height="204" viewBox="0 0 204 204" fill="none" xmlns="http://www.w3.org/2000/svg">
<path d="M152.375 131.981C148.792 129.885 144.398 129.93 140.837 132.037L122.799 142.786C118.765 145.197 113.717 144.915 110.011 142.02C103.611 137.017 93.3014 128.612 84.3328 119.643C75.3641 110.675 66.9476 100.366 61.9562 93.9662C59.0606 90.2594 58.7789 85.2231 61.1901 81.1782L71.9389 63.1399C74.0684 59.5796 74.0797 55.1404 71.984 51.5576L45.5062 6.34347C42.9373 1.97191 37.8446 -0.180068 32.9208 1.03676C28.1323 2.19725 21.9128 5.03651 15.4004 11.56C-5.00435 31.9644 -15.8433 66.3735 60.8859 143.112C137.615 219.851 172.025 209.013 192.441 188.597C198.976 182.062 201.804 175.843 202.976 171.043C204.17 166.119 202.052 161.061 197.68 158.503C186.785 152.126 163.282 138.369 152.375 131.981Z" fill="white"/>
</svg>
