<svg width="139" height="184" viewBox="0 0 139 184" fill="none" xmlns="http://www.w3.org/2000/svg">
<path fill-rule="evenodd" clip-rule="evenodd" d="M0.167969 69.2884C0.167969 25.9434 35.3756 0.0407715 69.4101 0.0407715C103.445 0.0407715 138.652 25.9434 138.652 69.2884C138.652 115.257 75.0025 179.441 72.2898 182.15C71.5281 182.915 70.4895 183.343 69.4101 183.343C68.3308 183.343 67.2922 182.915 66.5305 182.15C63.8178 179.441 0.167969 115.257 0.167969 69.2884ZM44.9725 69.2885C44.9725 82.7673 55.9331 93.7288 69.4109 93.7288C82.8887 93.7288 93.8493 82.7673 93.8493 69.2885C93.8493 55.8097 82.8887 44.8482 69.4109 44.8482C55.9331 44.8482 44.9725 55.8097 44.9725 69.2885Z" fill="white"/>
</svg>
